<?xml version="1.0" encoding="UTF-8"?>
<svg id="Layer_2" xmlns="http://www.w3.org/2000/svg" width="401.87" height="336.33" viewBox="0 0 401.87 336.33">
  <defs>
    <style>
      .cls-1 {
        fill: none;
        stroke: #dbd7c6;
        stroke-miterlimit: 10;
        stroke-width: 4px;
      }
    </style>
  </defs>
  <g id="Layer_4">
    <g>
      <line class="cls-1" x1="202.98" y1="202.16" x2="202.98"/>
      <line class="cls-1" x1="203.06" y1="202.17" x2="224.17" y2="1.11"/>
      <line class="cls-1" x1="203.15" y1="202.18" x2="245.13" y2="4.43"/>
      <line class="cls-1" x1="203.23" y1="202.2" x2="265.63" y2="9.91"/>
      <line class="cls-1" x1="203.31" y1="202.23" x2="285.45" y2="17.51"/>
      <line class="cls-1" x1="203.38" y1="202.27" x2="304.36" y2="27.13"/>
      <line class="cls-1" x1="203.45" y1="202.32" x2="322.16" y2="38.68"/>
      <line class="cls-1" x1="203.52" y1="202.37" x2="338.67" y2="52.02"/>
      <line class="cls-1" x1="203.58" y1="202.43" x2="353.69" y2="67.01"/>
      <line class="cls-1" x1="203.63" y1="202.49" x2="367.06" y2="83.49"/>
      <line class="cls-1" x1="203.68" y1="202.57" x2="378.63" y2="101.27"/>
      <line class="cls-1" x1="203.72" y1="202.64" x2="388.29" y2="120.17"/>
      <line class="cls-1" x1="203.75" y1="202.72" x2="395.93" y2="139.97"/>
      <line class="cls-1" x1="203.77" y1="202.8" x2="401.45" y2="160.46"/>
      <line class="cls-1" x1="202.33" y1="203.45" x2="39.33" y2="323.04"/>
      <line class="cls-1" x1="202.28" y1="203.38" x2="27.69" y2="305.3"/>
      <line class="cls-1" x1="202.24" y1="203.3" x2="17.96" y2="286.44"/>
      <line class="cls-1" x1="202.21" y1="203.22" x2="10.26" y2="266.67"/>
      <line class="cls-1" x1="202.19" y1="203.14" x2="4.66" y2="246.2"/>
      <line class="cls-1" x1="202.18" y1="203.06" x2="1.23" y2="225.25"/>
      <line class="cls-1" x1="202.17" y1="202.98" x2=".01" y2="204.07"/>
      <line class="cls-1" x1="202.17" y1="202.89" x2="1.01" y2="182.87"/>
      <line class="cls-1" x1="202.19" y1="202.81" x2="4.21" y2="161.89"/>
      <line class="cls-1" x1="202.21" y1="202.73" x2="9.58" y2="141.36"/>
      <line class="cls-1" x1="202.24" y1="202.65" x2="17.07" y2="121.51"/>
      <line class="cls-1" x1="202.28" y1="202.57" x2="26.59" y2="102.54"/>
      <line class="cls-1" x1="202.32" y1="202.5" x2="38.04" y2="84.68"/>
      <line class="cls-1" x1="202.37" y1="202.43" x2="51.3" y2="68.1"/>
      <line class="cls-1" x1="202.43" y1="202.37" x2="66.21" y2="53"/>
      <line class="cls-1" x1="202.5" y1="202.32" x2="82.61" y2="39.54"/>
      <line class="cls-1" x1="202.57" y1="202.27" x2="100.33" y2="27.87"/>
      <line class="cls-1" x1="202.64" y1="202.23" x2="119.18" y2="18.11"/>
      <line class="cls-1" x1="202.72" y1="202.2" x2="138.94" y2="10.37"/>
      <line class="cls-1" x1="202.81" y1="202.18" x2="159.4" y2="4.73"/>
      <line class="cls-1" x1="202.89" y1="202.17" x2="180.33" y2="1.27"/>
      <line class="cls-1" x1="202.51" y1="203.4" x2="104.13" y2="292.79"/>
      <line class="cls-1" x1="202.51" y1="203.4" x2="114.06" y2="302.62"/>
      <line class="cls-1" x1="202.51" y1="203.4" x2="124.96" y2="311.36"/>
      <line class="cls-1" x1="202.51" y1="203.4" x2="136.71" y2="318.9"/>
      <line class="cls-1" x1="202.51" y1="203.4" x2="149.2" y2="325.16"/>
      <line class="cls-1" x1="202.51" y1="203.4" x2="162.27" y2="330.09"/>
      <line class="cls-1" x1="202.51" y1="203.4" x2="175.79" y2="333.61"/>
      <line class="cls-1" x1="202.51" y1="203.4" x2="189.6" y2="335.69"/>
      <line class="cls-1" x1="202.51" y1="203.4" x2="203.55" y2="336.32"/>
      <line class="cls-1" x1="202.51" y1="203.4" x2="217.49" y2="335.47"/>
      <line class="cls-1" x1="202.51" y1="203.4" x2="231.27" y2="333.17"/>
      <line class="cls-1" x1="202.51" y1="203.4" x2="244.73" y2="329.44"/>
      <line class="cls-1" x1="202.51" y1="203.4" x2="257.72" y2="324.31"/>
      <line class="cls-1" x1="202.51" y1="203.4" x2="270.11" y2="317.85"/>
      <line class="cls-1" x1="202.51" y1="203.4" x2="281.74" y2="310.12"/>
      <line class="cls-1" x1="202.51" y1="203.4" x2="292.5" y2="301.22"/>
      <line class="cls-1" x1="202.51" y1="203.4" x2="302.27" y2="291.24"/>
      <line class="cls-1" x1="202.51" y1="203.4" x2="310.94" y2="280.28"/>
      <line class="cls-1" x1="202.51" y1="203.4" x2="318.41" y2="268.48"/>
      <line class="cls-1" x1="202.51" y1="203.4" x2="324.6" y2="255.96"/>
      <line class="cls-1" x1="202.51" y1="203.4" x2="329.44" y2="242.85"/>
      <line class="cls-1" x1="202.51" y1="203.4" x2="332.88" y2="229.32"/>
      <line class="cls-1" x1="202.51" y1="203.4" x2="334.88" y2="215.49"/>
      <line class="cls-1" x1="202.51" y1="203.4" x2="335.42" y2="201.53"/>
      <line class="cls-1" x1="202.51" y1="203.4" x2="334.49" y2="187.6"/>
    </g>
  </g>
</svg>